<mxfile host="app.diagrams.net" modified="2023-06-12T06:00:19.182Z" agent="Mozilla/5.0 (Windows NT 10.0; Win64; x64) AppleWebKit/537.36 (KHTML, like Gecko) Chrome/113.0.0.0 Safari/537.36" etag="-94zX9-Qdbk2hTcNj-Vm" version="21.3.7" type="github">
  <diagram name="페이지-1" id="b9ulTc4KV4PiuijPxStl">
    <mxGraphModel dx="1195" dy="663" grid="1" gridSize="10" guides="1" tooltips="1" connect="1" arrows="1" fold="1" page="1" pageScale="1" pageWidth="827" pageHeight="1169" math="0" shadow="0">
      <root>
        <mxCell id="0" />
        <mxCell id="1" parent="0" />
        <mxCell id="nuSkMVnRBMjdluR059bn-1" value="음성인식 버튼 3초 누르기" style="text;html=1;strokeColor=none;fillColor=none;align=center;verticalAlign=middle;whiteSpace=wrap;rounded=0;" vertex="1" parent="1">
          <mxGeometry x="10" y="110" width="80" height="50" as="geometry" />
        </mxCell>
        <mxCell id="nuSkMVnRBMjdluR059bn-2" value="DQC" style="text;html=1;strokeColor=none;fillColor=none;align=center;verticalAlign=middle;whiteSpace=wrap;rounded=0;" vertex="1" parent="1">
          <mxGeometry x="160" y="20" width="80" height="50" as="geometry" />
        </mxCell>
        <mxCell id="nuSkMVnRBMjdluR059bn-6" value="" style="edgeStyle=orthogonalEdgeStyle;rounded=0;orthogonalLoop=1;jettySize=auto;html=1;" edge="1" parent="1" source="nuSkMVnRBMjdluR059bn-3" target="nuSkMVnRBMjdluR059bn-4">
          <mxGeometry relative="1" as="geometry" />
        </mxCell>
        <mxCell id="nuSkMVnRBMjdluR059bn-3" value="&lt;b style=&quot;&quot;&gt;&lt;font color=&quot;#007fff&quot;&gt;handle_spi_packet_by_extended_frameID()&lt;/font&gt;&lt;br&gt;&lt;/b&gt;(apps_spi.c)&lt;br&gt;&lt;br&gt;&lt;font style=&quot;font-size: 10px;&quot;&gt;switch에서&amp;nbsp;&lt;b&gt;FID_WM_VOICE_FUNC_STATUS&lt;/b&gt;&lt;/font&gt;" style="rounded=1;whiteSpace=wrap;html=1;" vertex="1" parent="1">
          <mxGeometry x="120" y="110" width="310" height="60" as="geometry" />
        </mxCell>
        <mxCell id="nuSkMVnRBMjdluR059bn-4" value="&lt;b&gt;&lt;font color=&quot;#007fff&quot;&gt;APPS_VR_MANAGER_Task()&lt;/font&gt;&lt;/b&gt;&lt;br&gt;(service_vr_manager.c)&lt;br&gt;&lt;br&gt;&lt;font style=&quot;font-size: 10px;&quot;&gt;switch에서 &lt;b&gt;eVR_MANAGER_WM_VOICE_FUNC_STATUS&lt;/b&gt;&lt;/font&gt;" style="rounded=1;whiteSpace=wrap;html=1;" vertex="1" parent="1">
          <mxGeometry x="477" y="105" width="393" height="70" as="geometry" />
        </mxCell>
        <mxCell id="nuSkMVnRBMjdluR059bn-7" value="APPS_VR_MANAGER_Task&lt;br&gt;(service_vr_manager.c)&lt;br&gt;&lt;br&gt;switch에서 &lt;b&gt;eVR_MANAGER_WM_VOICE_FUNC_STATUS&lt;/b&gt;" style="rounded=1;whiteSpace=wrap;html=1;" vertex="1" parent="1">
          <mxGeometry x="1000" y="90" width="350" height="60" as="geometry" />
        </mxCell>
        <mxCell id="nuSkMVnRBMjdluR059bn-12" value="&lt;b&gt;DQC 내의 통신 방법: 여러 thread가 돌면서 message를 확인하는 것&lt;/b&gt;" style="rounded=0;whiteSpace=wrap;html=1;" vertex="1" parent="1">
          <mxGeometry x="430" y="15" width="370" height="35" as="geometry" />
        </mxCell>
        <mxCell id="nuSkMVnRBMjdluR059bn-17" value="function : &lt;b style=&quot;color: rgb(0, 204, 0);&quot;&gt;초록색&lt;br&gt;&lt;/b&gt;thread :&lt;font color=&quot;#00cc00&quot;&gt; &lt;/font&gt;&lt;font color=&quot;#007fff&quot;&gt;&lt;b&gt;파란색&lt;/b&gt;&lt;/font&gt;" style="rounded=0;whiteSpace=wrap;html=1;" vertex="1" parent="1">
          <mxGeometry x="20" y="10" width="120" height="60" as="geometry" />
        </mxCell>
        <mxCell id="nuSkMVnRBMjdluR059bn-8" value="&lt;br&gt;&lt;b style=&quot;border-color: var(--border-color); color: rgb(0, 204, 0);&quot;&gt;&lt;font style=&quot;font-size: 12px;&quot;&gt;send_message_to_playback_stop()&lt;/font&gt;&lt;/b&gt;&lt;br&gt;&lt;font style=&quot;font-size: 10px;&quot;&gt;&lt;br&gt;음성이 나올동안 잠시 모든 음성 기능 해제&lt;br&gt;&amp;nbsp;(wakeup + asr + tts_record)&lt;/font&gt;" style="rounded=1;whiteSpace=wrap;html=1;" vertex="1" parent="1">
          <mxGeometry x="390" y="230" width="210" height="70" as="geometry" />
        </mxCell>
        <mxCell id="nuSkMVnRBMjdluR059bn-41" style="edgeStyle=orthogonalEdgeStyle;rounded=0;orthogonalLoop=1;jettySize=auto;html=1;entryX=0.259;entryY=0.068;entryDx=0;entryDy=0;entryPerimeter=0;" edge="1" parent="1" source="nuSkMVnRBMjdluR059bn-26" target="nuSkMVnRBMjdluR059bn-28">
          <mxGeometry relative="1" as="geometry" />
        </mxCell>
        <mxCell id="nuSkMVnRBMjdluR059bn-26" value="&lt;b&gt;&lt;font color=&quot;#00cc00&quot;&gt;play_inform_sound()&lt;br&gt;&lt;/font&gt;&lt;/b&gt;" style="rounded=1;whiteSpace=wrap;html=1;" vertex="1" parent="1">
          <mxGeometry x="631" y="220" width="140" height="20" as="geometry" />
        </mxCell>
        <mxCell id="nuSkMVnRBMjdluR059bn-42" style="edgeStyle=orthogonalEdgeStyle;rounded=0;orthogonalLoop=1;jettySize=auto;html=1;entryX=0.5;entryY=0;entryDx=0;entryDy=0;" edge="1" parent="1" source="nuSkMVnRBMjdluR059bn-28" target="nuSkMVnRBMjdluR059bn-32">
          <mxGeometry relative="1" as="geometry" />
        </mxCell>
        <mxCell id="nuSkMVnRBMjdluR059bn-28" value="&lt;b style=&quot;color: rgb(0, 204, 0);&quot;&gt;send_message_to_playback_playlist_update()&lt;/b&gt;&lt;br&gt;&lt;br&gt;&lt;font style=&quot;font-size: 10px;&quot;&gt;음성 인식 시작했다는 메시지 전송&lt;/font&gt;" style="rounded=1;whiteSpace=wrap;html=1;" vertex="1" parent="1">
          <mxGeometry x="631" y="270" width="270" height="50" as="geometry" />
        </mxCell>
        <mxCell id="nuSkMVnRBMjdluR059bn-43" style="edgeStyle=orthogonalEdgeStyle;rounded=0;orthogonalLoop=1;jettySize=auto;html=1;entryX=0.5;entryY=0;entryDx=0;entryDy=0;" edge="1" parent="1" source="nuSkMVnRBMjdluR059bn-32" target="nuSkMVnRBMjdluR059bn-33">
          <mxGeometry relative="1" as="geometry" />
        </mxCell>
        <mxCell id="nuSkMVnRBMjdluR059bn-32" value="&lt;b&gt;&lt;font color=&quot;#007fff&quot;&gt;playback_service_thread_main()&lt;br&gt;&lt;/font&gt;&lt;/b&gt;&lt;br&gt;&lt;span style=&quot;font-size: 10px;&quot;&gt;msgtype이 ePLAYBACK_MSG_LIST_UPDATE&lt;/span&gt;" style="rounded=1;whiteSpace=wrap;html=1;" vertex="1" parent="1">
          <mxGeometry x="631" y="347" width="270" height="50" as="geometry" />
        </mxCell>
        <mxCell id="nuSkMVnRBMjdluR059bn-33" value="&lt;b style=&quot;color: rgb(0, 204, 0);&quot;&gt;sound_playback_speex_start()&lt;/b&gt;&lt;br&gt;&lt;br&gt;&lt;span style=&quot;font-size: 10px;&quot;&gt;&lt;i&gt;&quot;음성인식기능을 시작합니다, HI LG라고 외쳐주세요&quot;&lt;/i&gt;&lt;/span&gt;" style="rounded=1;whiteSpace=wrap;html=1;" vertex="1" parent="1">
          <mxGeometry x="631" y="420" width="269" height="50" as="geometry" />
        </mxCell>
        <mxCell id="nuSkMVnRBMjdluR059bn-44" value="" style="endArrow=classic;html=1;rounded=0;" edge="1" parent="1">
          <mxGeometry width="50" height="50" relative="1" as="geometry">
            <mxPoint x="700.58" y="175" as="sourcePoint" />
            <mxPoint x="700.58" y="215" as="targetPoint" />
          </mxGeometry>
        </mxCell>
        <mxCell id="nuSkMVnRBMjdluR059bn-45" value="&lt;b style=&quot;color: rgb(0, 204, 0);&quot;&gt;HAL_AND_PLAYBACK_Task()&lt;/b&gt;&lt;br&gt;&lt;br&gt;" style="rounded=1;whiteSpace=wrap;html=1;" vertex="1" parent="1">
          <mxGeometry x="940" y="420" width="269" height="50" as="geometry" />
        </mxCell>
      </root>
    </mxGraphModel>
  </diagram>
</mxfile>
